<svg width="31" height="31" viewBox="0 0 31 31" fill="none" xmlns="http://www.w3.org/2000/svg">
<path d="M15.5 0C19.6109 0 23.5533 1.63303 26.4602 4.53984C29.367 7.44666 31 11.3891 31 15.5C31 19.6109 29.367 23.5533 26.4602 26.4602C23.5533 29.367 19.6109 31 15.5 31C11.3891 31 7.44666 29.367 4.53984 26.4602C1.63303 23.5533 0 19.6109 0 15.5C0 11.3891 1.63303 7.44666 4.53984 4.53984C7.44666 1.63303 11.3891 0 15.5 0ZM8.71875 14.5312C8.46182 14.5312 8.21542 14.6333 8.03374 14.815C7.85206 14.9967 7.75 15.2431 7.75 15.5C7.75 15.7569 7.85206 16.0033 8.03374 16.185C8.21542 16.3667 8.46182 16.4688 8.71875 16.4688H19.9427L15.7829 20.6266C15.601 20.8085 15.4988 21.0552 15.4988 21.3125C15.4988 21.5698 15.601 21.8165 15.7829 21.9984C15.9648 22.1803 16.2115 22.2825 16.4688 22.2825C16.726 22.2825 16.9727 22.1803 17.1546 21.9984L22.9671 16.1859C23.0573 16.0959 23.1289 15.989 23.1778 15.8713C23.2266 15.7536 23.2517 15.6274 23.2517 15.5C23.2517 15.3726 23.2266 15.2464 23.1778 15.1287C23.1289 15.011 23.0573 14.9041 22.9671 14.8141L17.1546 9.00163C16.9727 8.81972 16.726 8.71753 16.4688 8.71753C16.2115 8.71753 15.9648 8.81972 15.7829 9.00163C15.601 9.18353 15.4988 9.43025 15.4988 9.6875C15.4988 9.94475 15.601 10.1915 15.7829 10.3734L19.9427 14.5313L8.71875 14.5312Z" fill="#063D64"/>
</svg>
