<svg width="64" height="50" viewBox="0 0 64 50" fill="none" xmlns="http://www.w3.org/2000/svg">
<path d="M61.4654 0.291249V3.88442C56.3811 5.74211 52.3969 8.67532 49.5126 12.684C46.6283 16.6438 45.1861 20.7748 45.1861 25.0768C45.1861 26.0056 45.3328 26.6901 45.6261 27.13C45.8216 27.4234 46.0416 27.57 46.286 27.57C46.5305 27.57 46.8971 27.3989 47.386 27.0567C48.9504 25.9323 50.9303 25.3701 53.3257 25.3701C56.1123 25.3701 58.581 26.519 60.7321 28.8166C62.8831 31.0654 63.9586 33.7542 63.9586 36.8829C63.9586 40.1583 62.712 43.0427 60.2188 45.5359C57.7744 48.0291 54.7923 49.2757 51.2725 49.2757C47.166 49.2757 43.6217 47.5891 40.6396 44.2159C37.6575 40.8428 36.1665 36.3207 36.1665 30.6499C36.1665 24.0502 38.1953 18.1349 42.2529 12.904C46.3105 7.67314 52.7146 3.46888 61.4654 0.291249ZM26.1936 0.291249V3.88442C21.1094 5.74211 17.1251 8.67532 14.2408 12.684C11.3565 16.6438 9.91435 20.7748 9.91435 25.0768C9.91435 26.0056 10.061 26.6901 10.3543 27.13C10.5499 27.4234 10.7699 27.57 11.0143 27.57C11.2587 27.57 11.6254 27.3989 12.1143 27.0567C13.6786 25.9323 15.6585 25.3701 18.054 25.3701C20.8405 25.3701 23.3093 26.519 25.4603 28.8166C27.6113 31.0654 28.6868 33.7542 28.6868 36.8829C28.6868 40.1583 27.4402 43.0427 24.947 45.5359C22.5027 48.0291 19.5206 49.2757 16.0007 49.2757C11.8943 49.2757 8.34998 47.5891 5.36789 44.2159C2.3858 40.8428 0.894757 36.3207 0.894757 30.6499C0.894757 24.0502 2.92355 18.1349 6.98115 12.904C11.0387 7.67314 17.4429 3.46888 26.1936 0.291249Z" fill="#FFCE31"/>
</svg>
