<svg width="25" height="25" viewBox="0 0 25 25" fill="none" xmlns="http://www.w3.org/2000/svg">
<path d="M23.6193 0H1.37983C0.61829 0 0 0.617055 0 1.37983V23.6193C0 24.3821 0.61829 25 1.37983 25H13.3529V15.3185H10.0952V11.545H13.3529V8.76227C13.3529 5.53374 15.3243 3.77478 18.205 3.77478C19.5861 3.77478 20.7704 3.8781 21.1157 3.92297V7.29764L19.1176 7.29846C17.5513 7.29846 17.2491 8.04312 17.2491 9.13522V11.5437H20.9861L20.4974 15.3169H17.2487V24.9988H23.6189C24.3813 24.9988 25 24.3801 25 23.6193V1.37901C24.9996 0.617055 24.3817 0 23.6193 0Z" fill="white"/>
</svg>
