<svg width="26" height="25" viewBox="0 0 26 25" fill="none" xmlns="http://www.w3.org/2000/svg">
<g clip-path="url(#clip0_141_69)">
<path d="M18.9678 0H7.76609C3.96204 0 0.867188 3.095 0.867188 6.89905V18.1008C0.867188 21.905 3.96204 24.9998 7.76609 24.9998H18.9678C22.7722 24.9998 25.867 21.9048 25.867 18.1008V6.89905C25.8672 3.095 22.7722 0 18.9678 0ZM23.6491 18.1008C23.6491 20.6819 21.5491 22.7817 18.968 22.7817H7.76609C5.1851 22.7819 3.0853 20.6819 3.0853 18.1008V6.89905C3.0853 4.31806 5.1851 2.21811 7.76609 2.21811H18.9678C21.549 2.21811 23.6489 4.31806 23.6489 6.89905V18.1008H23.6491Z" fill="white"/>
<path d="M13.3666 6.05859C9.81456 6.05859 6.9248 8.94834 6.9248 12.5004C6.9248 16.0523 9.81456 18.942 13.3666 18.942C16.9187 18.942 19.8085 16.0523 19.8085 12.5004C19.8085 8.94834 16.9187 6.05859 13.3666 6.05859ZM13.3666 16.7237C11.0378 16.7237 9.14291 14.8291 9.14291 12.5003C9.14291 10.1713 11.0376 8.27655 13.3666 8.27655C15.6956 8.27655 17.5904 10.1713 17.5904 12.5003C17.5904 14.8291 15.6955 16.7237 13.3666 16.7237Z" fill="white"/>
<path d="M20.0797 4.17773C19.6524 4.17773 19.2326 4.35075 18.9308 4.65389C18.6275 4.95555 18.4531 5.37551 18.4531 5.80435C18.4531 6.23185 18.6276 6.65166 18.9308 6.95481C19.2324 7.25647 19.6524 7.43096 20.0797 7.43096C20.5086 7.43096 20.927 7.25647 21.2302 6.95481C21.5333 6.65166 21.7063 6.2317 21.7063 5.80435C21.7063 5.37551 21.5333 4.95555 21.2302 4.65389C20.9285 4.35075 20.5086 4.17773 20.0797 4.17773Z" fill="white"/>
</g>
<defs>
<clipPath id="clip0_141_69">
<rect width="25" height="25" fill="white" transform="translate(0.867188)"/>
</clipPath>
</defs>
</svg>
