<svg width="26" height="25" viewBox="0 0 26 25" fill="none" xmlns="http://www.w3.org/2000/svg">
<path d="M24.2107 0H1.9885C1.62014 0 1.26687 0.146329 1.00641 0.406796C0.745938 0.667263 0.599609 1.02053 0.599609 1.38889V23.6111C0.599609 23.9795 0.745938 24.3327 1.00641 24.5932C1.26687 24.8537 1.62014 25 1.9885 25H24.2107C24.5791 25 24.9323 24.8537 25.1928 24.5932C25.4533 24.3327 25.5996 23.9795 25.5996 23.6111V1.38889C25.5996 1.02053 25.4533 0.667263 25.1928 0.406796C24.9323 0.146329 24.5791 0 24.2107 0ZM8.01489 21.3014H4.30378V9.37083H8.01489V21.3014ZM6.15933 7.74167C5.58912 7.74167 5.04225 7.51515 4.63905 7.11195C4.23585 6.70874 4.00933 6.16188 4.00933 5.59167C4.00933 5.02145 4.23585 4.47459 4.63905 4.07139C5.04225 3.66818 5.58912 3.44167 6.15933 3.44167C6.72955 3.44167 7.27641 3.66818 7.67961 4.07139C8.08281 4.47459 8.30933 5.02145 8.30933 5.59167C8.30933 6.16188 8.08281 6.70874 7.67961 7.11195C7.27641 7.51515 6.72955 7.74167 6.15933 7.74167ZM21.9024 21.3014H18.1954V15.5C18.1954 14.1167 18.1704 12.3375 16.2677 12.3375C14.3371 12.3375 14.0441 13.8458 14.0441 15.4028V21.3028H10.3399V9.37222H13.8954V11.0028H13.9468C14.4399 10.0653 15.651 9.07639 17.4524 9.07639C21.2079 9.07639 21.901 11.5458 21.901 14.7597V21.3014H21.9024Z" fill="white"/>
</svg>
