<svg width="25" height="18" viewBox="0 0 25 18" fill="none" xmlns="http://www.w3.org/2000/svg">
<path d="M22.8027 0H2.19727C0.987207 0 0 0.932123 0 2.07692V15.9231C0 17.064 0.982813 18 2.19727 18H22.8027C24.0098 18 25 17.071 25 15.9231V2.07692C25 0.936 24.0172 0 22.8027 0ZM22.4993 1.38462L12.5466 10.7923L2.50776 1.38462H22.4993ZM1.46484 15.6364V2.35703L8.51948 8.96811L1.46484 15.6364ZM2.50063 16.6154L9.55972 9.94292L12.0332 12.2609C12.3195 12.5292 12.7816 12.5283 13.0667 12.2587L15.4785 9.97906L22.4994 16.6154H2.50063ZM23.5352 15.6363L16.5143 9L23.5352 2.36363V15.6363Z" fill="white"/>
</svg>
