<svg width="42" height="52" viewBox="0 0 42 52" fill="none" xmlns="http://www.w3.org/2000/svg">
<path d="M29.7983 17.226C29.7423 17.0481 29.6378 16.8895 29.4964 16.7679C29.3551 16.6463 29.1825 16.5667 28.9983 16.538L23.9343 15.751L21.7123 11.136C21.6313 10.9679 21.505 10.8259 21.3476 10.7259C21.1901 10.6258 21.0078 10.5719 20.8213 10.57C20.634 10.5632 20.4488 10.6116 20.2888 10.7092C20.1288 10.8068 20.001 10.9493 19.9213 11.119L17.6083 15.69L12.5303 16.377C12.3454 16.402 12.1712 16.4783 12.0274 16.5971C11.8836 16.716 11.7759 16.8727 11.7165 17.0496C11.6571 17.2264 11.6484 17.4164 11.6913 17.5979C11.7342 17.7795 11.827 17.9454 11.9593 18.077L15.5933 21.69L14.6773 26.731C14.6439 26.9146 14.6625 27.1038 14.731 27.2774C14.7995 27.4509 14.9152 27.6018 15.0651 27.713C15.2149 27.8243 15.3928 27.8913 15.5788 27.9067C15.7647 27.9221 15.9513 27.8851 16.1173 27.8L20.6763 25.461L25.1873 27.889C25.3516 27.9777 25.5375 28.0186 25.7239 28.007C25.9102 27.9955 26.0897 27.932 26.2418 27.8238C26.394 27.7156 26.5128 27.5669 26.5848 27.3946C26.6568 27.2223 26.6792 27.0333 26.6493 26.849L25.8323 21.791L29.5323 18.251C29.6681 18.1222 29.7651 17.9578 29.8121 17.7766C29.8591 17.5954 29.8543 17.4046 29.7983 17.226ZM24.0683 20.707C23.9505 20.8186 23.8616 20.9573 23.8093 21.1109C23.757 21.2646 23.743 21.4287 23.7683 21.589L24.3533 25.166L21.1633 23.448C21.0206 23.3713 20.8614 23.3304 20.6994 23.3288C20.5374 23.3272 20.3774 23.3651 20.2333 23.439L17.0093 25.093L17.6563 21.528C17.6854 21.3685 17.6753 21.2044 17.6269 21.0497C17.5784 20.895 17.4931 20.7544 17.3783 20.64L14.8083 18.086L18.3993 17.6C18.56 17.5782 18.7129 17.5176 18.8449 17.4236C18.977 17.3295 19.0842 17.2047 19.1573 17.06L20.7933 13.827L22.3643 17.091C22.4345 17.2371 22.5392 17.364 22.6693 17.4607C22.7994 17.5574 22.9511 17.621 23.1113 17.646L26.6923 18.203L24.0683 20.707ZM35.5533 19.799C35.5537 16.8718 34.686 14.0101 33.06 11.576C31.434 9.1419 29.1227 7.24464 26.4184 6.12416C23.7141 5.00367 20.7382 4.7103 17.8672 5.28113C14.9961 5.85197 12.3588 7.26138 10.2888 9.33111C8.21881 11.4009 6.80904 14.038 6.23782 16.9089C5.6666 19.7799 5.95957 22.7558 7.07969 25.4603C8.19981 28.1647 10.0968 30.4763 12.5307 32.1026C14.9645 33.7289 17.826 34.597 20.7533 34.597C24.6769 34.593 28.4388 33.0327 31.2134 30.2585C33.988 27.4843 35.5488 23.7226 35.5533 19.799ZM20.7533 32.597C18.2217 32.597 15.7469 31.8463 13.642 30.4398C11.537 29.0333 9.89644 27.0342 8.92764 24.6953C7.95884 22.3565 7.70535 19.7828 8.19924 17.2998C8.69314 14.8169 9.91222 12.5361 11.7023 10.746C13.4924 8.95592 15.7732 7.73684 18.2561 7.24295C20.7391 6.74906 23.3128 7.00254 25.6516 7.97134C27.9905 8.94014 29.9896 10.5808 31.3961 12.6857C32.8026 14.7907 33.5533 17.2654 33.5533 19.797C33.5499 23.1907 32.2002 26.4444 29.8005 28.8442C27.4007 31.2439 24.147 32.5936 20.7533 32.597ZM41.4143 44.977L34.8963 30.677C34.9678 30.5289 35.0522 30.3874 35.1483 30.254C35.6351 29.7002 36.2057 29.2261 36.8393 28.849C38.0534 28.2012 39.0187 27.1695 39.5843 25.915C39.86 24.6013 39.6912 23.2332 39.1043 22.026C38.805 21.316 38.6187 20.5636 38.5523 19.796C38.6185 19.0277 38.8048 18.2746 39.1043 17.564C39.6913 16.3572 39.8602 14.9894 39.5843 13.676C39.0189 12.4211 38.0531 11.3892 36.8383 10.742C36.2071 10.3636 35.6386 9.88927 35.1533 9.336C34.77 8.69502 34.4896 7.99788 34.3223 7.27C34.0796 5.92739 33.4017 4.702 32.3933 3.783C31.2155 3.11065 29.8495 2.84398 28.5053 3.024C27.7511 3.08975 26.9913 3.03746 26.2533 2.869C25.5907 2.5816 24.977 2.19259 24.4343 1.716C23.432 0.750939 22.1369 0.147169 20.7533 0C19.3697 0.147169 18.0746 0.750939 17.0723 1.716C16.5295 2.19238 15.9158 2.58137 15.2533 2.869C14.5171 3.03833 13.759 3.09197 13.0063 3.028C11.6621 2.84782 10.296 3.11451 9.1183 3.787C8.1104 4.70642 7.43262 5.93162 7.1893 7.274C7.02202 8.00188 6.74162 8.69902 6.3583 9.34C5.87154 9.89207 5.30129 10.3645 4.6683 10.74C3.45361 11.3878 2.48792 12.4199 1.9223 13.675C1.64643 14.9884 1.8153 16.3562 2.4023 17.563C2.70184 18.2736 2.8881 19.0267 2.9543 19.795C2.88795 20.5623 2.70169 21.3144 2.4023 22.024C1.81536 23.2316 1.64651 24.6 1.9223 25.914C2.48772 27.1689 3.4535 28.2008 4.6683 28.848C5.3011 29.2238 5.87131 29.6962 6.3583 30.248C6.45406 30.382 6.53836 30.5238 6.6103 30.672L0.0922964 44.972C0.0127434 45.1441 -0.0162506 45.3352 0.00869443 45.5232C0.0336394 45.7111 0.111495 45.8881 0.233186 46.0335C0.354876 46.1789 0.515385 46.2866 0.696 46.3443C0.876614 46.4019 1.06989 46.407 1.2533 46.359L8.1733 44.545L11.4183 50.925C11.502 51.0897 11.6296 51.2279 11.787 51.3245C11.9445 51.421 12.1256 51.4721 12.3103 51.472H12.3313C12.5193 51.4679 12.7024 51.4108 12.8595 51.3073C13.0166 51.2038 13.1413 51.0582 13.2193 50.887L18.6533 38.981C19.2784 39.3832 20.006 39.597 20.7493 39.597C21.4926 39.597 22.2202 39.3832 22.8453 38.981L28.2813 50.887C28.3593 51.0582 28.484 51.2038 28.6411 51.3073C28.7982 51.4108 28.9812 51.4679 29.1693 51.472H29.1903C29.375 51.4721 29.5561 51.421 29.7136 51.3245C29.871 51.2279 29.9986 51.0897 30.0823 50.925L33.3273 44.545L40.2473 46.359C40.4302 46.4068 40.623 46.4018 40.8032 46.3445C40.9834 46.2873 41.1436 46.1801 41.2654 46.0354C41.3871 45.8907 41.4654 45.7145 41.491 45.5272C41.5167 45.3398 41.4887 45.1491 41.4103 44.977H41.4143ZM12.2633 48.171L9.5933 42.92C9.48976 42.7163 9.31957 42.5542 9.11106 42.4606C8.90255 42.3671 8.66829 42.3478 8.4473 42.406L2.7853 43.89L7.5533 33.444C7.82402 34.3739 8.37168 35.1992 9.1233 35.81C10.3011 36.4811 11.6665 36.7478 13.0103 36.569C13.7633 36.5047 14.5218 36.5583 15.2583 36.728C15.8906 36.9984 16.4768 37.3662 16.9953 37.818L12.2633 48.171ZM18.2943 36.297C17.5757 35.6736 16.7568 35.1763 15.8723 34.826C15.1792 34.6245 14.4587 34.5337 13.7373 34.557C13.4783 34.557 13.2173 34.563 12.9603 34.569C12.0543 34.7047 11.1284 34.5741 10.2953 34.193C9.6708 33.5121 9.2577 32.6644 9.1063 31.753C8.8831 30.8037 8.50033 29.8992 7.9743 29.078C7.35991 28.3338 6.62382 27.6992 5.7973 27.201C4.8973 26.589 4.0553 26.009 3.8243 25.301C3.72659 24.4051 3.88798 23.4999 4.2893 22.693C4.67177 21.7732 4.89658 20.7955 4.9543 19.801C4.89682 18.8058 4.67201 17.8274 4.2893 16.907C3.88833 16.1006 3.72663 15.1963 3.8233 14.301C4.0553 13.589 4.9013 13.009 5.7973 12.401C6.62411 11.9029 7.36054 11.2682 7.9753 10.524C8.50051 9.70241 8.88322 8.79803 9.1073 7.849C9.25816 6.93792 9.67095 6.09045 10.2953 5.41C11.1292 5.03037 12.0549 4.89947 12.9613 5.033C13.9391 5.1124 14.9233 5.02585 15.8723 4.777C16.7568 4.42672 17.5757 3.92937 18.2943 3.306C18.9658 2.63576 19.822 2.18104 20.7533 2C21.6839 2.17936 22.54 2.63195 23.2123 3.3C23.9309 3.92337 24.7498 4.42072 25.6343 4.771C26.5835 5.02042 27.5681 5.10698 28.5463 5.027C29.4524 4.89412 30.3776 5.02501 31.2113 5.404C31.8358 6.08432 32.2487 6.93185 32.3993 7.843C32.6231 8.79228 33.0062 9.69676 33.5323 10.518C34.1467 11.2622 34.8828 11.8968 35.7093 12.395C36.6093 13.007 37.4513 13.587 37.6833 14.295C37.78 15.1903 37.6183 16.0946 37.2173 16.901C36.8346 17.8214 36.6098 18.7998 36.5523 19.795C36.61 20.7895 36.8348 21.7672 37.2173 22.687C37.6184 23.494 37.7801 24.399 37.6833 25.295C37.4513 26.005 36.6053 26.585 35.7103 27.195C34.8831 27.6935 34.1464 28.3285 33.5313 29.073C33.0059 29.8945 32.6232 30.7989 32.3993 31.748C32.2484 32.6591 31.8356 33.5065 31.2113 34.187C30.3771 34.5655 29.4517 34.6963 28.5453 34.564C27.5675 34.485 26.5833 34.5716 25.6343 34.82C24.7498 35.1703 23.9309 35.6676 23.2123 36.291C22.5408 36.9612 21.6846 37.416 20.7533 37.597C19.8227 37.4176 18.9666 36.965 18.2943 36.297ZM33.0593 42.406C32.8383 42.3467 32.6036 42.3654 32.3948 42.4591C32.1861 42.5527 32.016 42.7155 31.9133 42.92L29.2433 48.171L24.5163 37.818C25.0348 37.3662 25.6209 36.9984 26.2533 36.728C26.9893 36.5577 27.7476 36.504 28.5003 36.569C29.8444 36.7487 31.2104 36.4821 32.3883 35.81C33.1402 35.1994 33.6879 34.374 33.9583 33.444L38.7213 43.89L33.0593 42.406Z" fill="black"/>
</svg>
